<svg width="96" height="96" xmlns="http://www.w3.org/2000/svg" xmlns:xlink="http://www.w3.org/1999/xlink" xml:space="preserve" overflow="hidden"><defs><clipPath id="clip0"><rect x="592" y="312" width="96" height="96"/></clipPath></defs><g clip-path="url(#clip0)" transform="translate(-592 -312)"><path d="M613.026 385C613.026 387.761 615.265 390 618.026 390 620.787 390 623.026 387.761 623.026 385L623.026 377.327 613.026 379.186Z"/><path d="M634.311 336.912C633.309 336.806 632.315 336.639 631.334 336.412 626.899 335.425 622.342 335.104 617.812 335.457 600.9 336.629 594.021 346.67 594.021 358.405L594.021 363 597.708 361.118 597.983 360.97C598.143 364.173 599.197 367.266 601.026 369.9L601.026 384.785C600.982 387.413 602.926 389.651 605.534 389.976 608.282 390.248 610.73 388.24 611.002 385.492 611.018 385.329 611.026 385.164 611.026 385L611.026 377.513 635.026 373.053 635.026 384.785C634.982 387.413 636.926 389.651 639.534 389.976 642.282 390.248 644.73 388.24 645.002 385.492 645.018 385.329 645.026 385.164 645.026 385L645.026 371C645.026 370.883 644.999 370.774 644.991 370.659L647.026 370.169 647.026 384.785C646.982 387.413 648.926 389.651 651.534 389.976 654.282 390.248 656.73 388.24 657.002 385.492 657.018 385.329 657.026 385.164 657.026 385L657.026 366.917 660.613 363.031C664.765 358.535 670.55 355.896 676.667 355.709L677.484 355.685C682.178 355.685 685.984 351.879 685.984 347.185L685.984 347.185C685.984 346.207 685.319 345.355 684.371 345.118L679.726 343.957 679.726 343.744C679.728 342.844 679.324 341.991 678.626 341.423 675.733 339.052 672.339 337.368 668.7 336.5 668.263 334.173 666.022 332.641 663.695 333.078 661.842 333.427 660.434 334.944 660.226 336.818L651.026 336.95 634.74 336.95Z"/></g></svg>